<?xml version="1.0" encoding="UTF-8"?>
<svg id="Layer_1" data-name="Layer 1" xmlns="http://www.w3.org/2000/svg" viewBox="0 0 33.08 33.08">
  <defs>
    <style>
      .cls-1 {
        stroke: #000;
      }

      .cls-1, .cls-2 {
        stroke-miterlimit: 10;
      }

      .cls-2 {
        fill: #fff;
        stroke: #fff;
      }
    </style>
  </defs>
  <rect class="cls-1" x=".5" y=".5" width="32.08" height="32.08" rx="6.01" ry="6.01"/>
  <g>
    <path class="cls-2" d="M15.04,7.01c-.66,2.6-2.59,7.41-8.07,9.29-.31.11-.34.62-.04.77,2.09.99,6.72,3.64,8.11,8.1.11.36.52.36.63,0,1.39-4.46,6.03-7.1,8.11-8.1.3-.14.27-.66-.04-.77-5.48-1.88-7.41-6.69-8.07-9.29-.1-.39-.54-.39-.64,0Z"/>
    <path class="cls-2" d="M23.65,20.8c-.2.78-.78,2.24-2.44,2.8-.09.03-.1.19-.01.23.63.3,2.03,1.1,2.45,2.44.03.11.16.11.19,0,.42-1.34,1.82-2.14,2.45-2.44.09-.04.08-.2-.01-.23-1.65-.57-2.24-2.02-2.44-2.8-.03-.12-.16-.12-.19,0Z"/>
  </g>
</svg>